<?xml version="1.0" standalone="no"?>
<!DOCTYPE svg PUBLIC "-//W3C//DTD SVG 20010904//EN"
 "http://www.w3.org/TR/2001/REC-SVG-20010904/DTD/svg10.dtd">
<svg version="1.0" xmlns="http://www.w3.org/2000/svg"
 width="167.000000pt" height="103.000000pt" viewBox="0 0 167.000000 103.000000"
 preserveAspectRatio="xMidYMid meet">
<metadata>
Created by potrace 1.16, written by Peter Selinger 2001-2019
</metadata>
<g transform="translate(0.000000,103.000000) scale(0.100000,-0.100000)"
fill="currentColor" stroke="none">
<path d="M875 1012 c-44 -7 -192 -34 -330 -61 -137 -27 -274 -53 -302 -56 -29
-4 -53 -12 -53 -17 0 -7 14 -8 35 -5 19 3 35 2 35 -3 0 -5 24 -22 53 -39 77
-44 190 -128 180 -134 -4 -3 -36 -8 -71 -12 -59 -7 -68 -5 -127 25 l-63 32
-45 -31 c-36 -24 -51 -29 -80 -24 l-36 5 27 54 c24 49 29 54 74 64 55 14 67
36 13 26 -34 -7 -43 0 -27 19 4 6 -5 -3 -20 -18 -16 -16 -28 -32 -28 -37 0 -5
-15 -39 -33 -77 -26 -55 -36 -67 -52 -64 -19 3 -19 2 -3 -16 10 -11 48 -30 85
-44 63 -22 82 -24 259 -24 l191 0 -117 -41 c-64 -22 -135 -51 -156 -65 -42
-26 -114 -87 -114 -98 0 -3 26 -7 58 -9 68 -3 88 8 106 63 12 36 20 42 72 62
33 12 63 22 67 22 4 1 -6 -19 -23 -44 -38 -55 -80 -144 -80 -169 0 -18 -6 -18
-97 -12 -107 8 -113 10 -113 33 0 13 9 14 53 9 28 -4 70 -9 92 -11 l40 -5 -35
17 c-19 9 -61 17 -92 17 -56 1 -58 2 -58 29 0 15 5 27 12 27 9 0 9 3 0 12 -22
22 -33 -11 -29 -77 6 -80 53 -173 123 -242 53 -52 55 -52 102 -47 26 4 119 26
207 51 233 65 314 83 371 83 35 0 56 5 65 16 11 13 25 15 76 10 40 -4 99 -1
160 9 53 9 157 22 232 31 74 8 145 17 158 20 25 7 32 34 9 34 -9 0 -12 7 -9
18 5 22 -80 155 -142 221 l-45 48 30 6 c22 5 30 12 30 28 0 19 -4 21 -32 15
-18 -3 -36 -13 -41 -21 -7 -13 -11 -13 -32 1 -13 8 -39 17 -57 19 -18 2 -58 8
-88 14 -30 6 -79 14 -108 18 l-54 8 31 39 c17 21 31 41 31 44 0 10 -42 -33
-58 -60 -14 -24 -23 -27 -91 -33 -42 -4 -83 -7 -91 -8 -10 -1 -18 14 -26 48
-8 34 -12 41 -13 23 -1 -15 3 -38 8 -51 9 -23 7 -26 -25 -32 -29 -5 -38 -2
-54 17 -20 23 -36 65 -28 73 26 27 426 70 473 51 15 -5 13 -10 -9 -37 -37 -43
-33 -68 4 -26 17 19 30 40 30 46 0 6 6 11 13 11 14 0 132 -33 161 -45 13 -6
17 -4 14 5 -2 7 -23 20 -45 29 l-42 16 28 16 c20 12 33 14 45 7 39 -22 26 5
-24 50 l-54 49 -65 -41 c-60 -37 -73 -41 -151 -47 -47 -3 -86 -4 -88 -3 -9 5
178 116 211 125 36 10 44 8 89 -20 56 -35 62 -37 54 -16 -3 8 -1 15 4 15 26 0
5 23 -35 40 -127 54 -359 78 -520 52z m204 -25 c-2 -2 -30 -18 -61 -34 l-58
-31 0 34 0 34 62 0 c34 0 59 -2 57 -3z m-149 -17 c0 -5 -5 -32 -11 -61 l-11
-51 -55 53 -54 54 28 6 c44 10 103 10 103 -1z m302 4 l38 -7 -57 -34 c-31 -18
-80 -53 -108 -77 -44 -38 -59 -45 -110 -51 l-60 -6 25 22 c14 12 64 40 113 62
48 22 87 44 87 48 0 5 -2 9 -5 9 -10 0 -171 -80 -193 -96 -23 -17 -23 -17 -16
12 10 42 9 41 92 84 78 40 117 46 194 34z m-393 -78 c73 -74 79 -105 24 -117
-24 -5 -33 -3 -33 7 0 14 -58 64 -138 118 -57 38 -58 34 13 49 58 13 70 7 134
-57z m-118 -38 c71 -58 96 -84 87 -89 -27 -18 -53 -7 -127 50 -42 32 -91 68
-110 79 l-34 21 29 6 c16 4 34 8 39 10 6 2 11 4 13 4 2 1 48 -36 103 -81z
m-153 18 c26 -24 71 -64 100 -88 51 -40 52 -43 30 -49 -49 -14 -70 -8 -121 34
-69 58 -158 119 -164 114 -2 -3 41 -41 96 -86 l101 -80 -41 -11 c-39 -11 -42
-10 -82 27 -56 51 -127 99 -179 122 l-43 18 45 6 c103 14 127 18 160 26 19 5
39 9 43 10 5 1 29 -19 55 -43z m828 -17 l23 -22 -32 -22 c-30 -20 -38 -21 -89
-11 l-57 10 57 32 c69 39 70 39 98 13z m-620 -161 c6 -18 14 -40 18 -49 6 -13
-4 -18 -55 -28 -57 -12 -64 -11 -76 5 -7 10 -13 13 -13 8 0 -6 5 -15 12 -22 9
-9 8 -12 -4 -12 -9 0 -23 -3 -32 -6 -11 -4 -16 -1 -16 10 0 10 -9 16 -25 16
-15 0 -25 6 -25 14 0 7 -8 20 -17 27 -15 11 -16 11 -5 -1 6 -8 12 -22 12 -32
0 -28 -81 -25 -116 5 l-26 23 93 17 c52 9 104 20 116 23 18 5 22 1 26 -23 l4
-28 2 31 c1 28 5 32 44 41 66 16 71 15 83 -19z m-511 2 c18 -20 17 -20 -46
-20 l-64 0 30 19 c39 25 58 25 80 1z m-135 -52 c12 -13 16 -24 11 -26 -20 -7
-81 19 -81 34 0 22 47 17 70 -8z m149 -16 c13 -16 13 -16 8 1 -5 13 0 17 21
18 15 1 40 3 56 5 20 2 34 -3 46 -19 26 -31 11 -37 -100 -37 -97 0 -158 18
-168 50 -7 20 119 4 137 -18z m902 -89 l81 -78 -68 -5 c-66 -5 -70 -4 -82 20
-7 14 -23 35 -34 47 -33 36 -18 34 45 -3 33 -19 57 -29 55 -23 -2 7 -35 30
-73 51 -39 22 -77 46 -85 54 -12 12 -8 14 33 14 46 0 51 -3 128 -77z m77 30
c15 -25 42 -64 61 -85 18 -21 31 -38 27 -38 -11 0 -82 55 -146 113 l-63 57 47
0 c45 0 47 -2 74 -47z m147 7 c-9 -14 -27 -12 -49 5 -29 22 -10 38 25 20 16
-9 27 -20 24 -25z m-425 17 c0 -7 18 -44 41 -81 22 -37 39 -69 37 -70 -11 -8
-118 -32 -118 -27 0 4 14 23 31 44 17 20 29 43 27 49 -3 7 -23 -16 -47 -50
-23 -34 -44 -62 -46 -62 -2 0 -27 -9 -55 -20 l-50 -20 48 63 c70 89 105 144
100 159 -3 7 -27 -21 -55 -62 -93 -139 -130 -178 -193 -210 -33 -17 -60 -28
-60 -26 0 3 -24 -11 -52 -30 -51 -33 -68 -40 -68 -29 0 16 77 123 154 213 102
120 112 159 12 51 -73 -80 -160 -204 -176 -253 -6 -20 -27 -41 -57 -61 -43
-27 -54 -29 -118 -26 -59 2 -74 6 -95 27 l-25 25 108 -7 107 -7 0 42 c0 65 38
125 157 253 29 31 53 61 53 66 0 8 133 40 230 55 59 10 110 7 110 -6z m363
-27 c56 -40 56 -40 71 -19 8 12 19 18 25 14 17 -10 13 -21 -20 -54 -52 -52
-83 -39 -143 57 -24 38 -25 42 -8 42 10 0 44 -18 75 -40z m-794 -98 c-85 -88
-130 -166 -133 -223 l-1 -40 -103 3 c-100 3 -104 4 -120 30 -9 15 -14 30 -11
33 4 3 37 -2 74 -10 101 -24 115 -20 132 39 15 51 44 101 100 176 31 41 72 63
127 69 5 1 -25 -34 -65 -77z m937 47 c3 -6 -10 -28 -30 -48 -29 -29 -43 -37
-62 -33 l-25 5 29 17 c17 10 38 30 48 44 21 28 29 31 40 15z m79 -111 c38 -57
43 -69 24 -57 -13 9 -39 24 -57 33 -33 17 -33 18 -16 37 9 10 15 21 12 24 -9
9 -38 -7 -38 -21 0 -16 -9 -18 -28 -5 -10 6 -6 15 18 35 17 14 33 26 34 26 2
0 25 -32 51 -72z m-1249 17 c-20 -31 -35 -38 -73 -33 -27 3 -25 4 27 35 30 17
56 30 59 28 2 -3 -4 -16 -13 -30z m834 -36 c-19 -17 -47 -37 -62 -45 -26 -13
-32 -12 -74 9 -31 16 -43 27 -35 32 15 8 144 33 181 34 24 0 24 -1 -10 -30z
m120 17 c-53 -49 -144 -114 -195 -139 -33 -16 -71 -35 -85 -43 -32 -17 -60
-18 -74 -1 -6 8 -38 29 -71 47 l-60 32 29 -31 c17 -17 44 -36 62 -43 38 -13
35 -28 -4 -29 -15 0 -67 -10 -117 -23 l-89 -23 -48 20 c-26 11 -48 23 -48 26
0 4 63 38 139 75 l140 68 30 -21 c34 -25 104 -51 134 -51 36 0 3 22 -74 51
l-71 26 32 13 c28 12 35 11 59 -4 86 -56 131 -52 208 19 37 34 56 44 83 45 29
0 32 -2 20 -14z m108 -5 c16 -10 -76 -86 -147 -122 -25 -12 -40 -24 -32 -27
27 -9 108 33 162 85 51 49 59 53 83 44 14 -6 26 -14 26 -19 0 -5 -22 -28 -49
-50 -44 -38 -60 -44 -150 -61 -85 -17 -107 -18 -137 -7 l-36 12 42 19 c22 10
69 45 103 76 62 58 100 72 135 50z m198 -92 c5 -9 0 -10 -16 -6 -13 3 -29 2
-34 -2 -6 -5 -30 -11 -54 -15 l-44 -6 33 39 33 39 38 -19 c20 -10 40 -24 44
-30z m-1000 -144 l36 -25 -27 -10 c-34 -13 -67 -13 -102 1 l-27 10 39 24 c22
13 41 24 42 24 1 1 19 -10 39 -24z m-218 -44 c24 -6 24 -6 4 -24 -22 -20 -45
-14 -72 17 -11 14 -9 16 16 15 16 -1 40 -4 52 -8z m98 -6 c14 -13 12 -16 -11
-25 -14 -5 -38 -12 -53 -16 -27 -5 -26 -5 8 25 41 36 38 35 56 16z"/>
<path d="M755 453 c-54 -71 -103 -134 -108 -141 -5 -7 -8 -15 -5 -18 3 -3 37
35 75 83 93 116 147 193 141 199 -3 2 -49 -53 -103 -123z"/>
<path d="M670 247 c0 -8 61 -43 88 -52 12 -3 22 -2 22 3 0 8 -19 18 -97 49 -7
3 -13 3 -13 0z"/>
<path d="M1460 903 c0 -10 15 -56 39 -117 6 -16 14 -27 16 -24 3 3 -6 36 -21
74 -26 70 -34 86 -34 67z"/>
<path d="M193 779 c-109 -51 -115 -66 -8 -22 l84 36 40 -36 c53 -48 81 -63 81
-42 0 8 -4 15 -9 15 -5 0 -31 19 -57 43 l-49 44 -82 -38z"/>
<path d="M1014 725 c-15 -20 -25 -37 -23 -39 2 -2 16 14 31 35 35 49 28 51 -8
4z"/>
<path d="M1532 735 c-1 -16 -5 -55 -8 -85 -4 -43 -3 -51 6 -38 6 10 9 47 7 85
-2 38 -4 55 -5 38z"/>
<path d="M1351 705 c-43 -49 -39 -58 6 -13 20 21 34 40 31 43 -3 3 -19 -10
-37 -30z"/>
<path d="M391 417 c-8 -12 -21 -32 -29 -44 -8 -13 -12 -23 -9 -23 7 0 59 81
55 85 -2 2 -10 -6 -17 -18z"/>
</g>
</svg>
