<?xml version="1.0" standalone="no"?>
<!DOCTYPE svg PUBLIC "-//W3C//DTD SVG 20010904//EN"
 "http://www.w3.org/TR/2001/REC-SVG-20010904/DTD/svg10.dtd">
<svg version="1.0" xmlns="http://www.w3.org/2000/svg"
 width="63.000000pt" height="108.000000pt" viewBox="0 0 63.000000 108.000000"
 preserveAspectRatio="xMidYMid meet">
<metadata>
Created by potrace 1.16, written by Peter Selinger 2001-2019
</metadata>
<g transform="translate(0.000000,108.000000) scale(0.100000,-0.100000)"
fill="currentColor" stroke="none">
<path d="M262 1063 c-19 -9 -40 -26 -48 -38 -8 -12 -33 -42 -55 -66 -49 -53
-101 -153 -125 -240 -25 -93 -23 -279 4 -380 26 -98 103 -249 126 -249 14 0 4
40 -23 91 -94 174 -112 399 -47 573 26 70 10 65 186 51 77 -6 107 -4 154 9 68
20 65 22 97 -72 62 -185 64 -382 5 -552 -19 -56 -25 -65 -44 -62 -12 2 -59 -4
-104 -13 -47 -10 -109 -15 -145 -13 -60 4 -63 3 -63 -19 0 -12 9 -27 19 -33
46 -24 289 0 299 30 2 6 10 10 17 10 18 0 62 94 81 177 23 97 14 346 -15 458
-27 103 -68 190 -120 255 -23 28 -41 56 -41 61 0 15 -57 39 -92 39 -18 0 -48
-8 -66 -17z m117 -42 c20 -13 -39 -24 -99 -19 -43 4 -44 4 -20 15 30 14 100
16 119 4z m76 -111 c19 -37 22 -52 13 -55 -46 -16 -118 -25 -215 -25 -128 0
-131 2 -83 68 17 23 30 46 30 52 0 6 44 10 115 10 l115 0 25 -50z"/>
<path d="M178 708 c-26 -20 -38 -85 -38 -203 0 -140 15 -238 43 -295 20 -41
25 -45 62 -47 53 -2 131 15 146 33 22 27 -4 34 -69 17 -88 -22 -102 -14 -126
73 -24 87 -32 270 -17 346 l12 57 32 -7 c18 -4 57 -7 87 -6 l55 0 -3 -58 c-2
-34 7 -112 22 -190 13 -73 28 -154 32 -180 3 -26 10 -45 16 -42 10 7 4 75 -23
256 -10 70 -19 150 -19 178 0 31 -6 57 -14 66 -19 18 -175 20 -198 2z"/>
</g>
</svg>
